<?xml version="1.0" standalone="no"?>
<!DOCTYPE svg PUBLIC "-//W3C//DTD SVG 20010904//EN"
 "http://www.w3.org/TR/2001/REC-SVG-20010904/DTD/svg10.dtd">
<svg version="1.0" xmlns="http://www.w3.org/2000/svg"
 width="512.000000pt" height="512.000000pt" viewBox="0 0 512.000000 512.000000"
 preserveAspectRatio="xMidYMid meet">
<metadata>
Created by potrace 1.11, written by Peter Selinger 2001-2013
</metadata>
<g transform="translate(0.000000,512.000000) scale(0.100000,-0.100000)"
fill="#000000" stroke="none">
<path d="M942 4748 c-8 -8 -12 -62 -12 -175 l0 -163 -158 0 c-121 0 -163 -3
-178 -14 -18 -13 -19 -32 -24 -268 l-5 -253 -58 -87 c-179 -269 -309 -605
-368 -949 -20 -116 -23 -168 -23 -389 0 -221 3 -273 23 -389 181 -1055 977
-1851 2032 -2032 116 -20 168 -23 389 -23 221 0 273 3 389 23 409 70 766 224
1098 472 126 95 367 336 462 462 248 332 402 689 472 1098 20 116 23 168 23
389 0 221 -3 273 -23 389 -59 347 -189 680 -374 959 l-62 94 -3 -1313 c-1
-949 -5 -1316 -13 -1326 -16 -18 -3238 -20 -3257 -1 -9 9 -12 414 -12 1760 l0
1748 -153 0 c-106 0 -157 -4 -165 -12z"/>
<path d="M3402 4737 c-29 -31 -28 -72 3 -102 l24 -25 373 0 c277 1 377 4 389
13 41 31 46 80 11 120 -14 16 -46 17 -397 17 l-382 0 -21 -23z"/>
<path d="M1656 4684 c-14 -13 -16 -59 -16 -350 l0 -334 -34 0 c-75 0 -115 -81
-66 -130 20 -20 33 -20 810 -20 777 0 790 0 810 20 27 27 26 81 -1 106 -19 17
-41 19 -255 22 l-234 3 0 124 c0 157 1 155 -125 155 -126 0 -125 2 -125 -156
l0 -124 -70 0 -70 0 0 236 c0 143 -4 243 -10 255 -10 17 -22 19 -113 19 -67 0
-107 -4 -115 -12 -9 -9 -12 -79 -12 -255 l0 -243 -75 0 -75 0 0 344 c0 304 -2
345 -16 350 -9 3 -55 6 -104 6 -67 0 -92 -4 -104 -16z"/>
<path d="M3405 4485 c-47 -46 -21 -117 47 -130 18 -3 189 -5 379 -3 373 3 370
3 390 57 13 33 -5 75 -37 90 -17 7 -140 11 -390 11 l-365 0 -24 -25z"/>
<path d="M3402 4227 c-29 -31 -28 -72 3 -102 l24 -25 373 0 c277 1 377 4 389
13 41 31 46 80 11 120 -14 16 -46 17 -397 17 l-382 0 -21 -23z"/>
<path d="M3405 3975 c-51 -50 -21 -119 57 -130 24 -3 194 -5 379 -3 362 3 360
3 380 57 13 33 -5 75 -37 90 -17 7 -140 11 -390 11 l-365 0 -24 -25z"/>
<path d="M3054 3546 c-52 -23 -62 -91 -18 -125 26 -21 35 -21 585 -21 543 0
560 1 579 20 45 45 28 115 -31 131 -13 4 -262 7 -554 8 -424 0 -536 -2 -561
-13z"/>
<path d="M2004 3535 c-170 -37 -321 -159 -399 -320 -46 -97 -59 -164 -52 -282
6 -115 31 -195 87 -282 107 -165 266 -258 460 -268 177 -9 323 46 445 171 100
102 152 209 170 354 l7 52 -151 0 -151 0 0 -33 c0 -54 -55 -152 -108 -192
-150 -115 -354 -66 -443 105 -32 61 -31 163 1 237 39 92 136 162 240 175 l25
3 0 145 0 145 -35 2 c-19 1 -62 -4 -96 -12z"/>
<path d="M3036 3279 c-46 -36 -32 -108 25 -128 41 -14 1076 -15 1113 -1 57 21
70 87 24 130 -21 20 -33 20 -579 20 -548 0 -557 0 -583 -21z"/>
<path d="M3054 3036 c-52 -23 -62 -91 -18 -125 26 -21 35 -21 585 -21 543 0
560 1 579 20 45 45 28 115 -31 131 -13 4 -262 7 -554 8 -424 0 -536 -2 -561
-13z"/>
<path d="M3036 2769 c-46 -36 -32 -108 25 -128 41 -14 1076 -15 1113 -1 57 21
70 87 24 130 -21 20 -33 20 -579 20 -548 0 -557 0 -583 -21z"/>
<path d="M3426 2324 c-14 -13 -16 -51 -16 -263 0 -219 2 -250 17 -262 12 -10
59 -15 178 -17 l163 -3 4 -73 c5 -108 1 -106 192 -106 113 0 166 4 174 12 18
18 17 332 -1 346 -7 6 -49 12 -92 14 l-80 3 -3 169 c-1 104 -7 175 -13 183 -9
10 -66 13 -260 13 -212 0 -250 -2 -263 -16z"/>
<path d="M1660 2213 c-51 -19 -68 -85 -30 -123 20 -20 33 -20 639 -20 l620 0
20 26 c34 43 24 86 -26 112 -16 9 -182 12 -615 11 -326 0 -600 -3 -608 -6z"/>
<path d="M1632 1940 c-32 -30 -30 -82 4 -109 26 -21 35 -21 626 -21 506 0 603
2 627 15 46 23 54 66 20 109 l-20 26 -618 0 c-607 0 -618 0 -639 -20z"/>
<path d="M1660 1703 c-51 -19 -68 -85 -30 -123 20 -20 33 -20 639 -20 l620 0
20 26 c34 43 24 86 -26 112 -16 9 -182 12 -615 11 -326 0 -600 -3 -608 -6z"/>
</g>
</svg>
